<?xml version="1.0" encoding="utf-8"?>
<!-- Generator: Adobe Illustrator 15.1.0, SVG Export Plug-In . SVG Version: 6.00 Build 0)  -->
<!DOCTYPE svg PUBLIC "-//W3C//DTD SVG 1.1//EN" "http://www.w3.org/Graphics/SVG/1.1/DTD/svg11.dtd">
<svg version="1.1" id="Layer_1" xmlns="http://www.w3.org/2000/svg" xmlns:xlink="http://www.w3.org/1999/xlink" x="0px" y="0px"
	 width="200px" height="200px" viewBox="0 0 200 200" enable-background="new 0 0 200 200" xml:space="preserve">
<g>
	<path fill="#FFFFFF" d="M153.525,99c0.269-2.557,5.844-5.167,5.809-13c-0.063-14.233-23.964-12.304-39.999-10.331l1.044-1.658
		c10.676-14.511,12.716-42.261,5.543-55.031c-3.315-5.904-10.56-9.494-16.479-5.133c-7.84,5.782-5.972,18.263-8.018,26.446
		c-2.039,8.156-7.665,17.199-13.511,22.681c-8.951,8.392-17.526,16.568-24.024,27.183c-5.32,8.691-7.896,18.452-7.506,27.913
		L56.326,118c-17.576,10.749-18.591,41.486,2.766,58.986c10.278,8.423,36.637,12.271,44.896-1.966
		c3.999,0.439,8.005,0.357,11.18,0.193c12.5-0.647,30.457-5.381,29.358-17.739c-0.495-5.577-1.262-6.006,1.977-11.475
		c2.496-4.217,4.501-7.924,3.996-12.998c-0.499-5.024-1.934-5.396,1.877-9.987c3.346-4.032,6.755-8.692,5.025-14.513
		C155.676,102.699,153.236,101.748,153.525,99z"/>
	<path d="M155.619,98.973L155.619,98.973C155.619,98.974,155.622,98.971,155.619,98.973z"/>
	<path d="M41.196,141.451c-0.958,13.903,5.258,27.766,16.628,37.082c6.049,4.957,16.154,7.984,25.522,7.983
		c2.345,0,4.645-0.189,6.82-0.586c6.629-1.207,11.697-4.243,14.801-8.778c2.519,0.221,5.119,0.267,7.784,0.198
		c3.456-0.077,7.055-0.376,10.756-1.033c3.691-0.662,7.488-1.621,11.251-3.236c1.875-0.818,3.741-1.811,5.507-3.097
		c1.744-1.308,3.427-2.915,4.625-5.002c1.215-2.055,1.843-4.581,1.709-6.995c-0.018-0.298-0.018-0.613-0.053-0.898l-0.08-0.774
		l-0.164-1.554l-0.086-0.779l-0.054-0.706c-0.059-0.493-0.017-0.868-0.016-1.272c0.11-1.443,1.084-3.171,2.128-4.994
		c1.059-1.801,2.234-3.828,3.079-6.038c0.866-2.217,1.344-4.744,1.206-7.216l-0.043-0.929l-0.111-0.878
		c-0.065-0.537-0.143-1.091-0.253-1.685l-0.26-1.569c-0.021-0.406-0.077-0.791,0.008-1.052l0.022-0.221l0.104-0.24
		c0.078-0.164,0.112-0.319,0.207-0.5c0.261-0.383,0.438-0.754,0.75-1.157l0.938-1.212l1.077-1.331
		c1.432-1.817,2.84-3.798,3.805-6.167c0.999-2.334,1.349-5.147,0.801-7.748l-0.236-0.959l-0.03-0.119l-0.06-0.192l-0.068-0.199
		l-0.137-0.397c-0.2-0.545-0.328-1.031-0.587-1.625c-0.496-1.202-1.063-2.325-1.662-3.325c-0.614-1.036-1.176-1.911-1.257-2.424
		c-0.071-0.133-0.032-0.274-0.039-0.41l-0.006-0.103l-0.005-0.052c-0.005,0.021-0.005,0.014-0.003,0l0.054-0.24
		c0.018-0.101,0.029-0.058,0.037-0.06c0.007,0.004,0.01,0.008,0.012,0.011c-0.001-0.001-0.002-0.001,0.003-0.01l0.074-0.116
		c0.079-0.145,0.211-0.33,0.354-0.52c0.573-0.766,1.38-1.67,2.094-2.658c0.726-0.992,1.387-2.099,1.899-3.279
		c1.055-2.374,1.396-4.984,1.21-7.474c0.003-0.486-0.178-1.299-0.313-1.976c-0.17-0.687-0.411-1.302-0.672-1.933
		c-0.324-0.598-0.604-1.228-1.034-1.754c-0.204-0.269-0.394-0.555-0.615-0.805l-0.694-0.719c-1.907-1.884-4.241-2.904-6.484-3.654
		c-2.27-0.728-4.545-1.123-6.788-1.375c-4.493-0.492-8.878-0.408-13.148-0.164c-2.786,0.163-5.519,0.419-8.207,0.713
		c0.072-0.108,0.143-0.213,0.221-0.331c0.496-0.665,1.023-1.744,1.676-2.901c0.699-1.176,1.23-2.545,1.937-4.073
		c1.247-3.095,2.604-6.924,3.534-11.451c0.945-4.518,1.616-9.697,1.633-15.395c0.01-5.683-0.593-11.94-3.02-18.321
		c-0.348-0.786-0.737-1.57-1.113-2.361l-0.143-0.296l-0.072-0.148l-0.035-0.074c-0.001-0.009-0.116-0.201-0.086-0.149l-0.315-0.515
		l-0.317-0.516l-0.432-0.601c-1.16-1.583-2.47-2.876-4.08-3.994c-1.595-1.095-3.453-1.942-5.502-2.302
		c-2.038-0.368-4.271-0.188-6.27,0.605c-0.487,0.213-0.967,0.449-1.447,0.682l-1.331,0.854c0.087-0.073-0.209,0.161-0.204,0.156
		l-0.062,0.053l-0.125,0.105l-0.248,0.211l-0.498,0.424c-0.173,0.157-0.319,0.249-0.513,0.459l-0.566,0.614
		c-0.812,0.831-1.329,1.679-1.906,2.533c-0.472,0.889-0.979,1.782-1.311,2.711c-0.756,1.845-1.219,3.735-1.551,5.598
		c-0.352,1.87-0.556,3.721-0.742,5.544c-0.188,1.828-0.338,3.624-0.559,5.369c-0.225,1.76-0.469,3.413-0.998,4.99l-0.396,1.316
		l-0.198,0.659l-0.234,0.586l-0.933,2.347l-1.137,2.37c-0.361,0.798-0.846,1.542-1.261,2.316c-1.767,3.036-3.772,5.974-6.108,8.544
		c-1.175,1.265-2.36,2.466-3.732,3.737c-1.326,1.244-2.648,2.507-3.964,3.782c-2.637,2.529-5.182,5.135-7.649,7.771
		c-2.418,2.69-4.766,5.402-6.868,8.255c-0.523,0.714-1.046,1.425-1.565,2.132c-0.525,0.704-0.973,1.461-1.459,2.185
		c-0.477,0.73-0.95,1.458-1.422,2.182c-0.429,0.746-0.855,1.487-1.28,2.225c-1.685,3.083-3.027,6.213-4.059,9.348
		c-1.047,3.137-1.735,6.299-2.127,9.392c-0.307,2.462-0.455,4.882-0.404,7.229C46.577,122.258,41.913,131.038,41.196,141.451z
		 M131.729,76.448c4.136-0.232,8.35-0.296,12.482,0.167c2.061,0.233,4.103,0.602,6.009,1.218c1.885,0.625,3.696,1.471,4.939,2.734
		l0.46,0.473c0.146,0.163,0.255,0.348,0.388,0.518c0.287,0.329,0.437,0.735,0.655,1.104c0.153,0.392,0.323,0.821,0.418,1.209
		c0.059,0.417,0.2,0.681,0.209,1.315c0.143,1.937-0.122,3.892-0.898,5.613c-0.381,0.871-0.87,1.702-1.469,2.519
		c-0.6,0.831-1.296,1.599-2.075,2.623c-0.194,0.26-0.392,0.53-0.591,0.873c-0.161,0.2-0.497,0.986-0.588,1.343l-0.094,0.411
		c-0.075,0.498-0.023,0.229-0.04,0.381l-0.003,0.159v0.318c0.007,0.425,0.001,0.852,0.13,1.254c0.178,0.865,0.524,1.5,0.829,2.096
		l0.878,1.496c0.556,0.93,0.986,1.821,1.357,2.691c0.2,0.432,0.368,1.035,0.555,1.544l0.137,0.398l0.067,0.199
		c0.003,0.008,0.002,0.007,0.004,0.012c-0.004-0.01-0.007-0.017-0.003-0.002l0.021,0.085l0.165,0.675
		c0.359,1.806,0.16,3.638-0.596,5.423c-0.724,1.789-1.913,3.506-3.237,5.175l-1.025,1.263l-1.104,1.422
		c-0.367,0.475-0.707,1.092-1.051,1.637c-0.163,0.307-0.3,0.684-0.44,1.027c-0.067,0.177-0.14,0.349-0.197,0.531l-0.107,0.6
		c-0.178,0.824-0.09,1.553-0.039,2.243l0.274,1.694c0.094,0.488,0.169,1.024,0.235,1.579l0.096,0.755l0.026,0.715
		c0.098,1.908-0.245,3.759-0.951,5.577c-0.712,1.842-1.696,3.567-2.809,5.447c-0.529,0.951-1.112,1.897-1.602,2.994
		c-0.516,1.04-0.935,2.354-1.072,3.694c-0.026,0.649-0.058,1.325,0.005,1.877c0.035,0.604,0.091,1.133,0.15,1.641l0.162,1.555
		l0.077,0.774c0.03,0.23,0.021,0.435,0.035,0.651c0.086,1.719-0.329,3.339-1.169,4.773c-1.686,2.906-4.929,4.935-8.217,6.38
		c-3.337,1.443-6.871,2.355-10.324,2.979c-3.454,0.621-6.872,0.912-10.153,0.991c-3.29,0.09-6.428,0.003-9.329-0.387
		c-0.622-0.079-1.228-0.179-1.825-0.287c-0.352-0.198-0.762-0.287-1.182-0.245c-1.738-0.383-3.363-0.886-4.792-1.552
		c-0.577-0.23-1.066-0.559-1.583-0.834c-0.485-0.311-0.844-0.56-1.308-0.905c-0.239-0.213-0.477-0.424-0.711-0.632l-0.176-0.156
		l-0.087-0.078l-0.013-0.011l-0.238-0.275c-0.17-0.192-0.338-0.382-0.504-0.57c-0.163-0.189-0.276-0.405-0.418-0.602
		c-0.569-0.788-0.875-1.648-1.131-2.466c-0.167-0.838-0.286-1.654-0.191-2.429c0.119-1.553,0.695-2.89,1.396-3.897
		c0.717-0.997,1.48-1.758,2.213-2.211c1.199-0.851,2.531-1.212,2.475-1.228c0.039-0.016,0.072-0.039,0.11-0.057
		c0.765,0.133,1.579,0.23,2.354,0.347c1.211,0.195,2.304,0.246,3.413,0.337c1.106,0.09,2.199,0.176,3.267,0.188
		c1.07,0.031,2.122,0.063,3.151,0.093c1.027-0.012,2.033-0.023,3.012-0.034c1.957,0.002,3.807-0.12,5.511-0.242
		c1.705-0.074,3.262-0.356,4.638-0.541c0.688-0.111,1.331-0.195,1.924-0.31c0.59-0.138,1.132-0.264,1.621-0.378
		c1.953-0.469,3.044-0.814,3.044-0.814c0.601-0.191,1.038-0.755,1.036-1.419c-0.003-0.819-0.669-1.482-1.488-1.479h-0.104
		c0,0-1.116,0.003-3.024,0.145c-0.476,0.038-1.002,0.081-1.576,0.127c-0.577,0.026-1.202,0.054-1.869,0.084
		c-1.335,0.053-2.825,0.205-4.472,0.237c-1.643,0.038-3.416,0.193-5.3,0.162c-0.94,0.005-1.907,0.009-2.896,0.015
		c-0.985-0.037-1.991-0.073-3.015-0.111c-1.027-0.018-2.058-0.107-3.1-0.199c-1.037-0.091-2.126-0.154-3.086-0.321
		c-1.003-0.161-1.954-0.216-3.071-0.53l-1.478-0.357c-0.465-0.176-0.95-0.317-1.401-0.517c-1.812-0.775-3.516-1.763-4.771-3.09
		c-1.284-1.294-2.163-2.861-2.518-4.481c-0.195-0.807-0.251-1.628-0.191-2.425c0.04-0.799,0.208-1.575,0.468-2.303
		c0.501-1.463,1.343-2.736,2.324-3.745c0.977-1.017,2.076-1.779,3.117-2.352c1.034-0.591,2.048-0.927,2.869-1.225
		c0.803-0.239,1.423-0.419,1.982-0.518c0.087-0.018,0.156-0.032,0.229-0.047c1.909,0.568,3.818,0.897,5.685,1.13
		c2.576,0.293,5.087,0.383,7.497,0.387c4.82-0.007,9.246-0.333,13.01-0.7c3.762-0.368,6.86-0.771,9.019-1.036
		c2.151-0.254,3.381-0.399,3.381-0.399c0.688-0.082,1.245-0.644,1.294-1.359c0.055-0.81-0.557-1.51-1.366-1.564
		c0,0-1.288-0.09-3.514-0.086c-2.228-0.012-5.382,0.104-9.127,0.313c-3.743,0.187-8.088,0.502-12.683,0.478
		c-2.294-0.019-4.65-0.122-6.982-0.404c-2.319-0.3-4.64-0.771-6.665-1.623c-1.017-0.434-1.927-0.952-2.65-1.518
		c-0.856-0.68-1.572-1.486-2.178-2.309c-1.213-1.657-1.814-3.535-1.67-5.34c0.122-1.811,0.951-3.519,2.086-4.918
		c1.161-1.392,2.594-2.494,4.051-3.313c1.456-0.827,2.93-1.388,4.273-1.767c1.349-0.371,2.559-0.604,3.57-0.727
		c1.015-0.129,1.72-0.19,2.352-0.207c0.588-0.023,0.901-0.036,0.901-0.036c0.096-0.004,0.188-0.022,0.28-0.04
		c0.188,0.023,0.377,0.048,0.563,0.068c1.519,0.15,2.969,0.216,4.369,0.256c5.59,0.117,10.385-0.115,14.332-0.383
		c3.946-0.244,7.026-0.59,9.119-0.805c2.048-0.223,3.141-0.342,3.141-0.342l0.082-0.009c0.747-0.08,1.332-0.708,1.34-1.478
		c0.009-0.83-0.657-1.509-1.486-1.518c0,0-0.298-0.003-0.876-0.009c-0.55,0.012-1.366,0.029-2.431,0.052
		c-2.11,0.076-5.191,0.191-9.098,0.393c-3.901,0.148-8.654,0.425-14.017,0.287c-1.337-0.04-2.712-0.105-4.088-0.245
		c-0.173-0.019-0.346-0.042-0.519-0.063c-0.248-0.107-0.521-0.168-0.81-0.166c0,0-0.121,0.001-0.331,0.003
		c-0.125-0.021-0.253-0.037-0.377-0.06c-0.661-0.113-1.332-0.309-1.712-0.439l-0.456-0.217c-0.012-0.007-0.021-0.012-0.012-0.008
		l-0.056-0.035l-0.111-0.068l-0.225-0.138c-0.291-0.191-0.617-0.351-0.887-0.567c-0.277-0.208-0.574-0.404-0.843-0.623l-0.783-0.683
		c-0.998-0.951-1.771-2.076-2.184-3.317c-0.441-1.235-0.427-2.61-0.093-3.996c0.378-1.383,1.095-2.771,2.083-4.036
		c1.985-2.535,4.895-4.625,8.184-5.908c0.819-0.331,1.672-0.585,2.533-0.815c0.428-0.087,0.8-0.187,1.271-0.268l0.73-0.114
		l0.309-0.048l0.37-0.046c1.963-0.249,3.951-0.5,5.96-0.753C123.507,77.125,127.589,76.683,131.729,76.448z M59.027,110.473
		c0.361-2.807,0.992-5.686,1.957-8.545c0.951-2.869,2.19-5.726,3.691-8.47c0.405-0.7,0.812-1.404,1.221-2.112
		c0.446-0.681,0.896-1.365,1.346-2.052c0.462-0.681,0.88-1.393,1.381-2.059c0.494-0.669,0.99-1.341,1.489-2.016
		c1.996-2.699,4.251-5.29,6.583-7.875c2.393-2.541,4.874-5.073,7.473-7.553c1.288-1.243,2.598-2.49,3.936-3.738
		c1.305-1.204,2.709-2.593,4.019-4.019c2.587-2.871,4.746-6.052,6.666-9.373c0.453-0.847,0.97-1.656,1.368-2.534l1.239-2.608
		l1.089-2.78l0.266-0.696l0.197-0.66l0.393-1.318c0.623-1.909,0.912-3.899,1.14-5.751c0.231-1.875,0.378-3.704,0.556-5.479
		c0.176-1.779,0.365-3.519,0.674-5.179c0.29-1.669,0.688-3.269,1.279-4.711c0.258-0.75,0.645-1.393,0.983-2.068
		c0.417-0.603,0.819-1.261,1.245-1.683l0.304-0.369c0.091-0.123,0.312-0.278,0.461-0.416l0.858-0.735l0.857-0.555l0.896-0.426
		c2.422-0.981,5.235-0.387,7.513,1.189c1.127,0.76,2.177,1.815,2.938,2.843l0.288,0.378l0.319,0.515l0.308,0.494
		c0.001,0.001-0.001-0.001,0,0l0.029,0.062l0.059,0.123l0.119,0.245c0.316,0.654,0.631,1.303,0.943,1.948
		c2.137,5.454,2.824,11.306,2.847,16.625c0.034,5.345-0.555,10.257-1.405,14.521c-0.836,4.278-2.079,7.861-3.203,10.74
		c-0.634,1.398-1.134,2.723-1.715,3.702c-0.569,1.023-0.939,1.885-1.469,2.614c-0.945,1.442-1.45,2.211-1.45,2.211l-0.004,0.006
		c-0.186,0.284-0.281,0.598-0.31,0.915c-1.798,0.23-3.584,0.458-5.344,0.684l-0.367,0.047l-0.424,0.064l-0.73,0.115
		c-0.499,0.085-1.081,0.223-1.61,0.339c-1.028,0.274-2.04,0.581-3.012,0.973c-3.892,1.539-7.312,3.961-9.816,7.153
		c-1.24,1.599-2.223,3.433-2.76,5.437c-0.502,2.006-0.519,4.214,0.173,6.169c0.655,1.963,1.846,3.61,3.181,4.877
		c0.338,0.311,0.687,0.6,1.027,0.896c-0.141,0.034-0.275,0.063-0.42,0.1c-1.604,0.422-3.397,1.055-5.237,2.052
		c-1.838,0.987-3.735,2.356-5.349,4.282c-1.586,1.917-2.9,4.462-3.121,7.378c-0.261,2.91,0.747,5.938,2.441,8.26
		c0.848,1.167,1.8,2.246,2.903,3.122c0.143,0.111,0.301,0.231,0.467,0.353c-0.484,0.196-0.983,0.415-1.504,0.691
		c-1.357,0.704-2.84,1.669-4.222,3.038c-1.375,1.36-2.67,3.133-3.426,5.31c-0.393,1.076-0.656,2.245-0.734,3.458
		c-0.099,1.211-0.022,2.47,0.259,3.703c0.518,2.479,1.841,4.838,3.635,6.675c1.58,1.675,3.529,2.896,5.558,3.813
		c-0.9,0.674-1.842,1.618-2.726,2.858c-1.033,1.486-1.911,3.48-2.101,5.858c-0.128,1.185,0.02,2.448,0.297,3.731
		c0.363,1.255,0.864,2.556,1.673,3.705c0.2,0.287,0.383,0.598,0.608,0.869c0.232,0.267,0.467,0.535,0.704,0.807l0.36,0.405
		l0.437,0.397c0.234,0.209,0.471,0.42,0.71,0.633c0.426,0.336,0.946,0.721,1.456,1.062c-8.975-0.699-17.18-5.766-22.207-11.623
		c-4.968-5.788-7.075-12.234-6.091-18.234c0.316,0.449,0.628,0.889,0.926,1.307c1.894,2.657,3.438,4.556,4.54,5.804
		c0.54,0.631,0.922,1.1,1.225,1.416c0.305,0.313,0.462,0.475,0.462,0.475l0.129,0.134c0.358,0.366,0.903,0.526,1.429,0.37
		c0.754-0.226,1.183-1.02,0.958-1.773c0,0-0.071-0.238-0.209-0.699c-0.157-0.445-0.37-1.162-0.771-1.978
		c-0.767-1.652-2.183-3.857-4.092-6.397c-0.915-1.292-1.931-2.715-2.918-4.293c-0.542-0.79-0.943-1.59-1.433-2.425
		c-0.494-0.779-0.927-1.843-1.405-2.841c-0.118-0.254-0.237-0.51-0.357-0.769c-0.081-0.221-0.162-0.444-0.245-0.669
		c-0.19-0.513-0.384-1.032-0.579-1.56c-0.164-0.539-0.329-1.085-0.497-1.639c-0.175-0.553-0.335-1.117-0.454-1.701
		c-0.603-2.303-0.916-4.802-1.091-7.409C58.525,116.021,58.673,113.278,59.027,110.473z M54.407,121.878
		c0.215,1.818,0.511,3.58,0.948,5.248c0.136,0.648,0.315,1.278,0.51,1.895c0.19,0.617,0.363,1.23,0.561,1.827
		c0.221,0.589,0.438,1.169,0.65,1.74l0.16,0.427l0.08,0.213l0.039,0.105l0.021,0.053l0.063,0.144
		c0.121,0.258,0.24,0.514,0.359,0.768c0.494,1.022,0.876,1.978,1.484,2.985c0.294,0.511,0.577,1.026,0.861,1.519
		c-2.902,8.131-0.719,17.491,6,25.319c6.064,7.066,16.301,13.107,27.371,13.107c2.179,0,4.391-0.251,6.607-0.757
		c0.092,0.019,0.179,0.044,0.271,0.062c-3.137,3.38-7.521,4.84-10.941,5.463c-10.803,1.968-23.274-1.788-29.092-6.556
		c-10.37-8.497-16.042-21.101-15.173-33.713C45.754,133.493,49.066,126.46,54.407,121.878z"/>
</g>
</svg>
