<?xml version="1.0" encoding="utf-8"?>
<!-- Generator: Adobe Illustrator 15.1.0, SVG Export Plug-In . SVG Version: 6.00 Build 0)  -->
<!DOCTYPE svg PUBLIC "-//W3C//DTD SVG 1.1//EN" "http://www.w3.org/Graphics/SVG/1.1/DTD/svg11.dtd">
<svg version="1.1" id="Layer_1" xmlns="http://www.w3.org/2000/svg" xmlns:xlink="http://www.w3.org/1999/xlink" x="0px" y="0px"
	 width="200px" height="200px" viewBox="0 0 200 200" enable-background="new 0 0 200 200" xml:space="preserve">
<g>
	<path fill="#FFFFFF" d="M136.144,143.337c0.509-7.531,6.978-9.051,9.393-15.359c3.918-10.238-1.201-12.969,2.04-19.309
		c2.443-4.776,6.314-9.19,3.531-17.304c-2.012-5.862-6.184-7.987-7.114-10.659c-1.041-2.987,0.342-6.485-2.729-12.458
		c-4.421-8.598-24.71-12.69-24.71-12.69s-3.549-11.121-11.839-13.452c-4.408-1.24-13.158-2.125-22.39,3.332
		c-10.331,6.106-14.689,11.806-11.919,18.543l0.273-0.05c-3.78,3.183-6.17,9.787-6.17,9.787s-15.587,6.962-14.829,34.065
		c0.834,29.822,17.509,36.781,17.509,36.781s0.491-4.229,0.524-1.451c0.093,7.617,7.841,11.207,10.247,12.307
		c6.102,2.789,13.724,3.777,19.106,3.824C112.862,159.38,135.286,156.013,136.144,143.337z"/>
	<path d="M112.238,160.405c4.116-0.578,8.375-1.424,12.649-2.971c2.131-0.787,4.274-1.738,6.32-3.069
		c2.025-1.336,4.007-3.062,5.388-5.417c0.667-1.176,1.21-2.471,1.465-3.835c0.091-0.337,0.103-0.681,0.154-1.022l0.103-0.842
		l0.104-0.857c0.036-0.283,0.104-0.421,0.148-0.641c0.377-1.729,1.486-3.34,2.999-4.949c1.504-1.619,3.432-3.377,4.856-5.779
		l0.509-0.911l0.431-0.96l0.105-0.242l0.053-0.121c0.014-0.027,0.077-0.207,0.067-0.181l0.146-0.426l0.294-0.853
		c0.204-0.525,0.372-1.26,0.551-1.901c0.198-0.665,0.271-1.315,0.407-1.976c0.46-2.647,0.186-5.531-0.196-7.896
		c-0.168-1.181-0.266-2.207-0.158-3.143c0.1-0.938,0.408-1.839,0.853-2.764c1.051-2.053,2.474-4.197,3.508-6.783
		c1.059-2.561,1.482-5.608,1.051-8.417c-0.066-0.715-0.263-1.385-0.399-2.077l-0.294-0.998l-0.15-0.498l-0.038-0.125
		c0.03,0.075-0.084-0.242-0.089-0.248l-0.091-0.217l-0.722-1.734c-0.337-0.644-0.716-1.306-1.085-1.951
		c-0.388-0.607-0.801-1.143-1.204-1.715c-0.423-0.529-0.862-1.045-1.293-1.551l-1.254-1.397l-0.574-0.655l-0.437-0.589
		c-0.189-0.211-0.174-0.34-0.28-0.499l-0.063-0.112l-0.033-0.056c-0.006-0.015-0.004-0.009-0.007-0.017l-0.09-0.354
		c-0.209-0.684-0.172-1.04-0.242-1.481c-0.086-1.169-0.103-2.476-0.302-3.865c-0.174-1.37-0.504-2.758-0.967-4.07
		c-0.188-0.681-0.508-1.287-0.781-1.919l-0.425-0.94c-0.044-0.085,0.021,0.025-0.111-0.221l-0.059-0.101l-0.119-0.202l-0.237-0.404
		c-0.165-0.274-0.299-0.529-0.49-0.818l-0.668-0.916c-0.442-0.642-0.93-1.121-1.407-1.646c-0.973-1.02-2.063-1.888-3.185-2.682
		c-2.269-1.556-4.732-2.643-7.21-3.48c-3.779-1.244-7.605-1.913-11.395-2.298c-0.702-1.999-4.615-12.049-13.089-14.433
		c-3.66-1.029-13.321-2.746-23.948,3.535c-6.168,3.645-13.709,9.076-13.709,16.428c0.001,1.053,0.162,2.147,0.497,3.279
		c-0.296,0.298-0.595,0.593-0.868,0.913c-1.563,1.813-2.717,3.983-3.322,6.245c-0.122,0.449-0.207,0.897-0.289,1.347
		c-1.303,0.609-15.963,8.05-15.963,33.939c0,0.645,0.01,1.305,0.028,1.973c0.813,29.035,16.128,37.347,18.458,38.443
		c0.07,0.271,0.145,0.541,0.24,0.789c0.816,2.502,2.6,4.872,4.886,6.703c2.288,1.859,5.076,3.295,7.994,4.396
		c3.109,1.167,6.392,1.967,9.911,2.502c1.758,0.275,3.572,0.449,5.438,0.568c0.934,0.045,1.884,0.077,2.841,0.089
		c0.909,0.007,1.872-0.001,2.84-0.017C104.124,161.239,108.117,160.97,112.238,160.405z M83.343,47.16
		c9.299-5.496,17.665-4.018,20.831-3.128c5.226,1.47,8.395,7.237,9.731,10.262c-4.665-0.208-9.261-0.098-13.751,0.233
		c-4.765,0.341-9.415,0.921-13.942,1.632c-1.13,0.19-2.254,0.38-3.372,0.568l-1.667,0.307c-0.566,0.124-1.131,0.248-1.693,0.372
		c-2.33,0.569-4.595,1.384-6.674,2.511c-0.413,0.224-0.814,0.471-1.214,0.721C71.311,57.247,73.477,52.992,83.343,47.16z
		 M51.68,107.729c-0.558-19.871,7.828-28.219,11.731-31.016c0.018,0.213,0.023,0.428,0.047,0.64l0.051,0.375l0.081,0.461
		c0.051,0.313,0.133,0.586,0.2,0.879c0.159,0.578,0.364,1.151,0.623,1.706c0.519,1.109,1.255,2.127,2.121,2.946
		c0.417,0.388,0.853,0.732,1.298,1.041c-0.44,0.19-0.892,0.403-1.354,0.653c-1.681,0.914-3.462,2.381-4.778,4.441
		c-1.351,2.042-2.103,4.623-2.237,7.275c-0.032,0.334-0.02,0.665-0.016,0.999l0.008,0.503l0.005,0.252l0.002,0.127l0.016,0.193
		c0.064,0.617,0.079,1.152,0.188,1.855c0.204,1.444,0.53,2.796,1.066,4.197c0.563,1.384,1.356,2.766,2.444,3.962
		c0.912,1.013,2.029,1.857,3.224,2.51c-1.436,0.945-2.862,2.367-3.792,4.217c-0.998,1.943-1.544,4.23-1.569,6.574
		c0,0.587-0.001,1.182,0.061,1.775l0.035,0.447l0.026,0.283l0.028,0.201c0.043,0.277,0.064,0.511,0.125,0.83
		c0.231,1.324,0.577,2.473,1.085,3.692c1.005,2.379,2.644,4.704,4.938,6.344c0.408,0.296,0.837,0.562,1.274,0.813
		c-0.82,0.744-1.591,1.715-2.166,2.962c-0.221,0.493-0.423,1.028-0.561,1.621C61.635,138.536,52.291,129.585,51.68,107.729z
		 M94.834,157.087c-1.729-0.106-3.422-0.262-5.055-0.511c-3.264-0.478-6.334-1.238-8.958-2.204
		c-2.804-1.042-5.157-2.287-6.987-3.764c-1.84-1.467-3.07-3.169-3.621-4.846c-0.174-0.432-0.234-0.802-0.313-1.156l-0.066-0.268
		l-0.029-0.38c-0.019-0.251-0.038-0.499-0.057-0.743c-0.052-0.484,0.108-1.13,0.359-1.67c0.506-1.122,1.337-1.869,2.024-2.277
		c0.68-0.395,1.377-0.522,1.623-0.545c0.003-0.002,0.013-0.001,0.017-0.002l1.097,0.205c2.459,0.355,5.091,0.642,7.448,0.775
		c2.413,0.2,4.782,0.262,7.075,0.344c2.293,0.102,4.513,0.044,6.616,0.072c2.104,0,4.099-0.113,5.938-0.158
		c1.837-0.039,3.535-0.242,5.032-0.346c0.749-0.07,1.449-0.137,2.098-0.199c0.652-0.097,1.249-0.203,1.787-0.302
		c2.157-0.37,3.369-0.658,3.369-0.658c0.896-0.212,1.542-1.04,1.492-1.993c-0.055-1.072-0.97-1.896-2.043-1.842l-0.184,0.01
		c0,0-1.182,0.062-3.214,0.303c-0.509,0.055-1.071,0.117-1.681,0.205c-0.623,0.044-1.297,0.092-2.018,0.143
		c-1.444,0.084-3.054,0.299-4.845,0.338c-1.788,0.047-3.721,0.166-5.773,0.17c-2.054-0.021-4.222,0.043-6.46-0.05
		c-2.239-0.073-4.558-0.126-6.893-0.314c-2.396-0.135-4.581-0.366-6.91-0.681l-1.783-0.328l-0.445-0.082l-0.102-0.019l-0.178-0.056
		l-0.732-0.221c-0.948-0.348-1.835-0.805-2.631-1.377c-1.604-1.132-2.78-2.775-3.543-4.553c-0.375-0.868-0.666-1.873-0.813-2.698
		c-0.047-0.216-0.08-0.523-0.12-0.778l-0.029-0.2c0.009,0.06-0.005-0.085-0.007-0.117l-0.027-0.353
		c-0.053-0.469-0.049-0.928-0.053-1.381c-0.004-1.813,0.404-3.446,1.043-4.737c0.636-1.304,1.57-2.212,2.537-2.837
		c0.979-0.621,2.014-0.922,2.873-1.143c0.404-0.084,0.757-0.122,1.071-0.18c0.224,0.043,0.442,0.088,0.681,0.123l2.136,0.316
		c2.806,0.357,5.56,0.554,8.278,0.656c2.717,0.121,5.377,0.133,7.947,0.12c5.141-0.034,9.913-0.235,13.992-0.433
		c4.079-0.198,7.464-0.361,9.811-0.681c2.351-0.288,3.672-0.603,3.672-0.603l0.013-0.002c0.622-0.149,1.128-0.653,1.248-1.324
		c0.162-0.902-0.439-1.766-1.343-1.928c0,0-0.344-0.061-0.991-0.129c-0.649-0.075-1.595-0.152-2.791-0.184
		c-2.396-0.105-5.783,0.111-9.833,0.301c-4.05,0.184-8.767,0.367-13.8,0.385c-2.515,0.006-5.112-0.014-7.73-0.139
		c-2.618-0.099-5.278-0.322-7.857-0.629l-1.891-0.26c-0.627-0.081-1.319-0.244-1.974-0.363l-0.994-0.192
		c-0.159-0.043-0.544-0.124-0.785-0.204c-0.558-0.148-1.063-0.354-1.559-0.566c-1.949-0.89-3.291-2.422-4.093-4.369
		c-0.383-0.972-0.651-2.063-0.804-3.039c-0.092-0.504-0.127-1.183-0.192-1.754l-0.018-0.707c-0.006-0.256-0.021-0.513,0.004-0.759
		c0.063-2.002,0.563-3.797,1.438-5.176c0.851-1.396,2.007-2.415,3.207-3.103c1.206-0.683,2.404-1.092,3.425-1.347
		c1.003-0.229,1.745-0.365,2.438-0.418c0.072-0.007,0.127-0.013,0.191-0.02l0.237,0.043c0,0.003,0.323,0.039,0.226,0.025
		l0.082,0.005l0.165,0.009c0.878,0.048,1.745,0.095,2.602,0.142c1.785,0.002,3.523,0.005,5.214,0.007
		c1.632-0.032,3.218-0.063,4.754-0.093c6.137-0.139,11.47-0.332,15.863-0.487c4.392-0.182,7.842-0.256,10.187-0.424
		c2.338-0.186,3.563-0.545,3.563-0.545l0.045-0.013c0.585-0.174,1.061-0.651,1.201-1.289c0.207-0.935-0.384-1.86-1.318-2.067
		c0,0-1.283-0.283-3.647-0.295c-2.356,0.013-5.801,0.199-10.186,0.346c-4.384,0.154-9.709,0.347-15.801,0.485
		c-1.521,0.03-3.091,0.06-4.708,0.092c-1.559,0.002-3.162,0.005-4.808,0.007c-0.856-0.047-1.725-0.094-2.603-0.142l-0.164-0.009
		l-0.06-0.003l-0.255-0.048l-0.59-0.108c-0.402-0.059-0.772-0.178-1.159-0.271c-1.529-0.399-2.926-1.068-3.938-2.012
		c-1-0.96-1.587-2.181-1.781-3.819c-0.181-1.671-0.12-3.441,0.335-5.086c0.863-3.328,3.383-6.2,6.808-8.019
		c1.715-0.927,3.594-1.606,5.558-2.093l1.558-0.344l1.626-0.299c1.091-0.184,2.188-0.369,3.29-0.555
		c4.418-0.694,8.958-1.26,13.58-1.59c4.62-0.341,9.327-0.449,14.042-0.199c4.699,0.287,9.447,0.914,13.869,2.375
		c4.391,1.445,8.469,3.896,10.618,7.642l0.237,0.404l0.119,0.202l0.059,0.101c-0.1-0.176-0.003,0.007-0.014-0.008l0.344,0.771
		c0.221,0.516,0.497,1.019,0.635,1.552c0.369,1.049,0.625,2.108,0.767,3.225c0.163,1.094,0.183,2.302,0.277,3.634
		c0.088,0.803,0.198,1.706,0.366,2.226l0.115,0.456c-0.002-0.007,0.119,0.399,0.102,0.304l0.071,0.155l0.146,0.309
		c0.2,0.387,0.405,0.875,0.637,1.139l0.686,0.921l0.664,0.761l1.26,1.404c0.381,0.45,0.756,0.89,1.116,1.338
		c0.313,0.455,0.671,0.913,0.956,1.361l0.762,1.323l0.722,1.734l0.063,0.15c0.001,0.004,0.002,0.01,0.014,0.041l0.029,0.101
		l0.12,0.401l0.239,0.802c0.097,0.536,0.266,1.071,0.307,1.604c0.312,2.14,0.035,4.208-0.79,6.248
		c-0.805,2.049-2.126,4.075-3.339,6.41c-0.638,1.293-1.143,2.75-1.299,4.266c-0.168,1.516,0.002,2.953,0.176,4.191
		c0.382,2.457,0.559,4.492,0.205,6.641c-0.114,0.521-0.17,1.08-0.324,1.572c-0.152,0.52-0.224,0.971-0.451,1.569l-0.294,0.853
		l-0.147,0.425l-0.126,0.284l-0.302,0.68l-0.367,0.654c-1.013,1.736-2.612,3.246-4.313,5.051c-1.685,1.794-3.429,4.109-4.044,6.939
		c-0.076,0.346-0.184,0.762-0.22,1.051l-0.104,0.856l-0.106,0.868c-0.037,0.225-0.032,0.459-0.099,0.675
		c-0.162,0.892-0.522,1.72-0.962,2.511c-0.915,1.574-2.373,2.9-4.03,3.989c-1.662,1.093-3.534,1.943-5.442,2.653
		c-3.836,1.409-7.853,2.235-11.762,2.797c-3.919,0.552-7.762,0.827-11.451,0.912c-0.914,0.019-1.813,0.031-2.746,0.027
		C96.57,157.15,95.699,157.124,94.834,157.087z"/>
</g>
</svg>
