<?xml version="1.0" standalone="no"?>
<!DOCTYPE svg PUBLIC "-//W3C//DTD SVG 20010904//EN"
 "http://www.w3.org/TR/2001/REC-SVG-20010904/DTD/svg10.dtd">
<svg version="1.0" xmlns="http://www.w3.org/2000/svg"
 width="700.000000pt" height="700.000000pt" viewBox="0 0 700.000000 700.000000"
 preserveAspectRatio="xMidYMid meet">
<metadata>
Created by potrace 1.11, written by Peter Selinger 2001-2013
</metadata>
<g transform="translate(0.000000,700.000000) scale(0.100000,-0.100000)"
fill="#000000" stroke="none">
<path d="M2993 6615 c-120 -27 -232 -114 -297 -230 -27 -50 -79 -185 -70 -185
2 0 0 -8 -5 -18 -31 -58 -32 -428 -2 -578 6 -27 12 -62 15 -79 19 -127 122
-487 166 -580 5 -11 24 -58 43 -105 19 -47 53 -125 76 -174 23 -49 41 -91 41
-93 0 -2 -12 4 -27 15 -74 52 -183 96 -275 110 -124 19 -225 -7 -348 -90 -226
-152 -324 -313 -314 -517 l3 -69 -57 0 c-82 0 -118 -9 -197 -47 -130 -64 -244
-189 -296 -324 -28 -72 -35 -248 -13 -342 17 -74 57 -194 86 -259 11 -25 31
-70 45 -100 67 -149 193 -338 289 -434 50 -51 162 -128 201 -140 26 -8 30 -20
37 -136 6 -80 8 -97 21 -160 3 -14 8 -38 10 -55 31 -171 127 -397 246 -576 81
-120 260 -303 368 -374 l41 -27 -6 -87 c-5 -72 -3 -96 15 -149 61 -179 209
-290 476 -356 130 -32 237 -41 480 -41 185 0 325 7 405 19 14 3 54 8 90 11 36
4 72 8 80 10 8 1 38 5 65 9 28 4 70 11 95 16 25 6 56 12 70 14 24 4 243 62
265 69 221 79 366 176 446 299 96 148 90 336 -14 454 l-29 34 66 67 c139 140
224 309 260 518 18 108 14 364 -9 475 -3 14 -8 36 -10 50 -21 113 -42 182
-158 525 -68 200 -108 334 -152 500 -19 73 -82 349 -88 390 -3 17 -19 109 -36
205 -16 96 -33 200 -36 230 -4 30 -8 66 -10 80 -2 14 -7 52 -10 85 -4 33 -9
74 -11 90 -19 158 -25 626 -11 925 13 268 10 452 -9 545 -2 11 -6 32 -9 48
-20 106 -98 236 -178 297 -184 138 -394 114 -568 -67 -164 -171 -263 -425
-295 -759 -14 -147 -19 -479 -10 -627 2 -38 3 -67 1 -65 -7 7 -145 391 -183
508 -61 188 -140 472 -158 565 -17 89 -87 341 -107 387 -101 227 -296 340
-504 293z"/>
</g>
</svg>
