<?xml version="1.0" encoding="utf-8"?>
<!-- Generator: Adobe Illustrator 15.1.0, SVG Export Plug-In . SVG Version: 6.00 Build 0)  -->
<!DOCTYPE svg PUBLIC "-//W3C//DTD SVG 1.1//EN" "http://www.w3.org/Graphics/SVG/1.1/DTD/svg11.dtd">
<svg version="1.1" id="Layer_1" xmlns="http://www.w3.org/2000/svg" xmlns:xlink="http://www.w3.org/1999/xlink" x="0px" y="0px"
	 width="200px" height="200px" viewBox="0 0 200 200" enable-background="new 0 0 200 200" xml:space="preserve">
<g>
	<path fill="#FFFFFF" d="M102.397,133.504"/>
	<path fill="#FFFFFF" d="M157.357,43.653c-12.805-1.023-13.355,43.117-19.316,42.047c0,0,3.954-27.729,3.307-42.12
		c-0.547-12.164-4.563-23.653-12.457-27.121c-6.377-2.802-13.82,1.645-14.502,12.123l0.051,1.898
		c-0.986-4.863-2.282-9.482-3.971-13.541c-2.692-6.478-10.296-10.145-16.719-6.298c-6.729,4.031-5.805,13.407-4.758,19.885
		c2.627,16.257,5.301,33.775,4.161,50.213c-0.672-11.702-4.102-23.768-8.368-34.162c-5.717-13.929-17.686-22.026-24.689-14.994
		c-7.82,7.853,0.603,21.422,5.653,40.15c2.183,8.094,6.956,28.476,6.253,37.522c0,0,2.207,0.342,2.012,1.459
		c-1.852-0.287-3.797-0.429-5.845-0.384c-1.38,0.029-5.434-13.13-10.154-19.815c-9.812-13.897-22.729-15.545-28.572-7.179
		c-3.839,5.496,4.629,14.044,7.699,19.078c3.612,5.922,6.42,9.779,8.379,16.494c1.907,6.537,4.018,12.94,5.663,19.565
		c3.84,15.475,10.465,26.416,22.903,31.535l-2.534-0.053c-10.653,16.302,16.434,20.044,33.938,20.146
		c15.781,0.092,37.342-2.588,30.094-18.814l-1.672-0.035c3.353-1.402,5.908-3.166,7.549-4.945
		c20.442-22.162,15.963-61.092,18.184-66.926C165.221,84.733,175.188,45.078,157.357,43.653z"/>
	<path d="M166.646,47.25c-0.292-0.55-0.725-1.054-1.09-1.576c-0.407-0.502-0.897-0.96-1.356-1.428
		c-0.538-0.395-1.051-0.835-1.631-1.165l-0.894-0.46c-0.29-0.158-0.601-0.298-0.954-0.397c-0.65-0.202-1.463-0.479-1.921-0.506
		l-0.797-0.12l-0.199-0.03l-0.1-0.015c0.021,0-0.335-0.039-0.219-0.023l-0.07-0.002l-0.562-0.014
		c-1.509,0.006-3.045,0.548-4.184,1.356c-1.172,0.797-2.049,1.775-2.778,2.768c-0.731,0.998-1.321,2.027-1.843,3.064
		c-2.036,4.16-3.178,8.415-4.242,12.644c-0.656,2.674-1.232,5.347-1.801,8.005c0.045-0.443,0.094-0.886,0.133-1.331
		c0.178-2.004,0.41-3.998,0.543-6.01l0.436-6.033l0.26-6.123c0.02-2.015-0.02-4.004-0.027-6.007
		c-0.091-2.176-0.249-4.153-0.553-6.229c-0.275-2.052-0.688-4.093-1.218-6.113c-0.507-2.025-1.226-4.014-2.065-5.964
		c-0.836-1.951-1.936-3.831-3.268-5.577c-1.369-1.749-2.911-3.299-5.068-4.573l-1.332-0.689l-0.156-0.075l-0.053-0.02l-0.105-0.04
		l-0.211-0.079l-0.422-0.155c-0.286-0.093-0.557-0.225-0.856-0.281c-0.593-0.121-1.173-0.307-1.786-0.331l-0.911-0.076
		c-0.304-0.003-0.61,0.02-0.915,0.032c-1.226,0.042-2.422,0.37-3.559,0.798c-1.105,0.497-2.172,1.099-3.064,1.889
		c-1.618,1.363-2.805,3.092-3.647,4.918c-0.558-1.768-1.167-3.482-1.843-5.109c-1.654-3.98-5-7.134-8.949-8.437
		c-3.602-1.188-7.381-0.765-10.646,1.19c-8.432,5.051-6.521,16.872-5.705,21.919c1.467,9.079,2.784,17.692,3.589,26.005
		c-1.29-4.162-2.688-7.904-3.971-11.032c-4.063-9.899-11.187-17.192-18.149-18.581c-3.76-0.75-7.149,0.265-9.807,2.936
		c-6.63,6.657-3.34,16.27,0.825,28.44c1.472,4.303,2.995,8.752,4.313,13.642c2.73,10.123,6.537,27.694,6.236,36.006
		c-0.326-0.006-0.653-0.014-0.981-0.021c-0.054-0.093-0.108-0.188-0.162-0.29c-0.583-1.109-1.154-2.441-1.727-3.761
		c-1.149-2.665-2.321-5.461-3.686-8.286c-0.681-1.414-1.413-2.836-2.242-4.257l-0.648-1.069c-0.237-0.374-0.473-0.736-0.689-1.046
		c-0.5-0.708-1.002-1.337-1.508-2.013c-2.067-2.625-4.464-5.125-7.349-7.181c-2.873-2.041-6.278-3.657-10.093-4.117
		c-0.467-0.092-0.958-0.073-1.441-0.086c-0.486,0.007-0.969-0.045-1.458,0.02c-0.978,0.115-1.96,0.214-2.914,0.538
		c-0.978,0.216-1.868,0.712-2.783,1.122c-0.839,0.571-1.699,1.021-2.477,1.813l-0.588,0.551c-0.195,0.185-0.403,0.378-0.512,0.533
		l-0.801,0.986c-0.763,0.929-1.276,2.031-1.52,3.195c-0.47,2.355,0.13,4.463,0.837,6.221c1.497,3.536,3.656,6.325,5.632,9.067
		l1.447,2.016l0.647,0.965l0.656,1.055c0.883,1.428,1.764,2.852,2.641,4.27c1.711,2.785,3.228,5.621,4.249,8.432
		c0.272,0.717,0.51,1.538,0.766,2.299c0.23,0.756,0.46,1.509,0.689,2.26c0.465,1.541,0.927,3.072,1.385,4.591
		c0.941,3.024,1.757,6.052,2.585,9.001c0.407,1.463,0.81,2.909,1.208,4.338c0.401,1.479,0.765,2.945,1.232,4.372
		c1.728,5.73,4.124,11.016,7.151,15.456c3.083,4.4,6.821,7.87,10.601,10.143c0.345,0.188,0.681,0.382,1.014,0.574
		c-2.396,4.148-2.726,7.906-0.966,11.181c5.233,9.739,27.779,10.919,37.23,10.974c0.273,0.002,0.543,0.003,0.813,0.003
		c16.681-0.001,27.121-3.038,31.033-9.034c2.07-3.171,2.236-7.018,0.548-11.436c0.042-0.023,0.085-0.043,0.126-0.066
		c1.984-1.107,4.063-2.703,5.52-4.438c2.989-3.354,5.494-7.103,7.554-11.048c2.058-3.949,3.643-8.104,4.92-12.319
		c2.55-8.448,3.747-17.171,4.38-25.829c0.322-4.327,0.461-8.674,0.682-12.91c0.057-1.057,0.131-2.099,0.238-3.091l0.092-0.722
		l0.088-0.52c0.006-0.079,0.067-0.244,0.098-0.361l0.058-0.193l0.025-0.087l0.276-0.746c0.762-2.065,1.445-4.138,2.089-6.224
		c1.278-4.171,2.374-8.389,3.288-12.657c0.902-4.271,1.631-8.591,2.023-12.986c0.383-4.391,0.486-8.869-0.302-13.426
		C168.596,51.744,167.928,49.428,166.646,47.25z M116.377,28.805V28.8c0.107-0.99,0.197-2.042,0.396-2.801
		c0.064-0.413,0.182-0.833,0.322-1.256c0.122-0.425,0.248-0.847,0.434-1.237c0.648-1.609,1.614-3.039,2.85-4.08
		c1.225-1.053,2.727-1.691,4.283-1.756c0.194-0.005,0.388-0.027,0.582-0.026l0.584,0.054c0.393,0,0.771,0.147,1.158,0.212
		c0.196,0.028,0.377,0.131,0.566,0.19l0.281,0.102l0.143,0.05l0.07,0.025l0.014,0.004l1.281,0.664
		c1.286,0.781,2.672,2.056,3.74,3.467c1.09,1.431,2.04,3.025,2.775,4.752c0.739,1.722,1.393,3.505,1.855,5.363
		c0.484,1.848,0.867,3.735,1.123,5.648c0.283,1.882,0.435,3.898,0.515,5.717c0.007,1.997,0.047,4.008,0.026,5.992l-0.254,5.866
		l-0.428,5.936c-0.131,1.98-0.361,3.961-0.537,5.942c-0.176,1.981-0.405,3.96-0.624,5.94c-0.373,3.415-0.806,6.832-1.261,10.231
		c-0.318-0.148-0.646-0.297-0.983-0.447c-2.64-1.182-5.798-2.381-9.276-3.402c-1.744-0.491-3.568-0.933-5.439-1.305
		c-0.674-0.134-1.369-0.244-2.062-0.354c0.849-8.064,1.698-30.197-2.269-48.98C116.307,29.151,116.357,28.984,116.377,28.805z
		 M94.777,12.357c2.886-1.728,5.583-1.401,7.336-0.823c2.861,0.944,5.295,3.251,6.51,6.173c7.404,17.804,7.197,47.89,5.921,60.071
		l-1.128-0.092l-1.468-0.086c-0.954-0.045-1.904-0.082-2.848-0.099c-1.886-0.036-3.743-0.032-5.542,0.05
		c-2.97,0.122-5.763,0.404-8.269,0.79c0.717-15.236-1.533-30.861-4.324-48.135C89.898,23.6,89.366,15.599,94.777,12.357z
		 M69.332,108.652c0.015,0.023,0.009,0.015-0.001-0.001C69.331,108.652,69.331,108.652,69.332,108.652z M68.348,108.226
		l-0.113-0.003C68.17,108.226,68.192,108.215,68.348,108.226z M165.098,67.062c-0.369,4.169-1.068,8.342-1.939,12.481
		c-0.885,4.138-1.949,8.249-3.188,12.297c-0.623,2.022-1.285,4.032-2.01,6.001l-0.272,0.737l-0.077,0.229l-0.029,0.097l-0.057,0.193
		c-0.038,0.142-0.076,0.229-0.114,0.416c-0.075,0.352-0.151,0.727-0.206,1.064l-0.113,0.876c-0.123,1.145-0.198,2.247-0.257,3.336
		c-0.224,4.349-0.356,8.596-0.671,12.844c-0.611,8.469-1.775,16.893-4.197,24.922c-1.211,4.007-2.704,7.92-4.619,11.599
		c-1.916,3.674-4.225,7.124-6.953,10.19c-1.326,1.549-2.726,2.586-4.474,3.596c-1.712,0.975-3.575,1.744-5.495,2.367l-1.463,0.412
		l-0.365,0.104l-0.092,0.025c0.01-0.002-0.039,0.01-0.029,0.008l-0.002,0.001l-0.197,0.044l-0.785,0.178
		c-0.52,0.113-1.063,0.25-1.56,0.344l-1.472,0.261c-0.963,0.215-2.021,0.282-3.031,0.46c-1.024,0.139-2.059,0.212-3.096,0.366
		l-0.133,0.019c-0.738,0.11-1.327,0.723-1.379,1.498c-0.059,0.893,0.617,1.666,1.512,1.725c1.109,0.073,2.227,0.14,3.346,0.137
		c1.126-0.057,2.225-0.042,3.378-0.211l1.716-0.223c0.563-0.082,1.063-0.209,1.597-0.313l0.79-0.162l0.197-0.04l0.164-0.039
		l0.102-0.028l0.41-0.115l1.641-0.461c0.871-0.281,1.732-0.601,2.587-0.944c1.114,3.058,1.021,5.533-0.286,7.536
		c-3.096,4.742-13.229,7.283-28.473,7.217c-21.423-0.125-31.471-4.662-33.73-8.867c-1.1-2.045-0.746-4.511,1.044-7.504
		c0.299,0.133,0.597,0.271,0.903,0.383c0.907,0.33,1.791,0.662,2.614,0.941c0.79,0.222,1.543,0.434,2.258,0.635
		c3.165,0.742,5.594,1.008,7.16,0.965c1.599,0.021,2.461-0.053,2.461-0.053c0.595-0.051,1.132-0.453,1.319-1.059
		c0.247-0.797-0.2-1.644-0.997-1.891c0,0-0.826-0.255-2.392-0.576c-1.612-0.273-3.789-0.824-6.409-1.422
		c-0.714-0.203-1.467-0.416-2.257-0.64c-0.709-0.26-1.452-0.532-2.226-0.815c-0.771-0.279-1.558-0.703-2.384-1.065
		c-0.827-0.376-1.61-0.894-2.462-1.353c-3.31-2.002-6.553-5.02-9.316-8.961c-2.705-3.989-4.929-8.857-6.557-14.301
		c-0.441-1.348-0.785-2.756-1.166-4.166c-0.402-1.457-0.81-2.931-1.221-4.421c-0.823-2.952-1.63-5.972-2.574-9.028
		c-0.458-1.53-0.92-3.073-1.386-4.627c-0.241-0.796-0.483-1.596-0.727-2.396c-0.261-0.783-0.475-1.533-0.777-2.35
		c-1.208-3.359-2.86-6.388-4.633-9.302c-0.878-1.426-1.76-2.858-2.644-4.294l-0.678-1.092c-0.248-0.386-0.516-0.782-0.761-1.135
		l-1.512-2.099c-1.986-2.714-3.983-5.393-5.133-8.138c-0.567-1.355-0.836-2.703-0.613-3.705c0.101-0.495,0.325-0.971,0.639-1.349
		l0.799-0.987c0.139-0.192,0.255-0.271,0.373-0.372l0.348-0.305c0.396-0.443,1.062-0.778,1.601-1.174
		c0.632-0.254,1.214-0.625,1.896-0.756c1.301-0.431,2.729-0.463,4.139-0.333c2.843,0.337,5.64,1.596,8.088,3.338
		c2.461,1.745,4.6,3.953,6.467,6.317c0.448,0.598,0.937,1.208,1.349,1.787c0.235,0.337,0.427,0.636,0.611,0.924l0.572,0.94
		c0.749,1.279,1.439,2.61,2.09,3.956c1.307,2.691,2.459,5.424,3.625,8.115c0.594,1.354,1.151,2.674,1.887,4.074
		c0.192,0.357,0.387,0.712,0.705,1.155c0.097,0.124,0.139,0.202,0.295,0.368c0.151,0.154,0.214,0.26,0.559,0.504l0.223,0.145
		c0.05,0.034,0.161,0.096,0.36,0.167c0.17,0.062,0.351,0.105,0.531,0.131c0.246,0.027,0.312,0.028,0.285,0.027l0.262,0.005
		c0.697,0.014,1.39,0.027,2.076,0.041c0.72-0.014,1.261,0.113,1.888,0.16c0.606,0.064,1.204,0.106,1.816,0.248
		c0.607,0.119,1.208,0.236,1.804,0.354c0.583,0.168,1.16,0.334,1.731,0.498c4.559,1.396,8.294,3.837,11.28,6.33
		c3.018,2.482,5.288,5.098,7.109,7.283c1.821,2.209,3.144,4.027,4.052,5.29c0.451,0.636,0.796,1.122,1.028,1.45
		c0.07,0.102,0.132,0.189,0.185,0.266l0.048,0.074c0.084,0.145,0.283,0.366,0.537,0.48c0.256,0.123,0.523,0.139,0.715,0.111
		c0.206-0.012,0.758-0.227,0.971-0.764c0.202-0.472,0.01-0.918,0.052-0.799c-0.018-0.055-0.044-0.126-0.05-0.133
		c-0.018-0.036-0.035-0.069-0.05-0.099c-0.05-0.091-0.074-0.136-0.077-0.142c0.008,0.012,0.024,0.027,0.031,0.038l0.02,0.024
		c0.007-0.014-0.034-0.127-0.061-0.218c-0.132-0.399-0.339-1.007-0.656-1.77c-0.626-1.522-1.684-3.737-3.411-6.296
		c-0.899-1.26-1.905-2.657-3.174-4.043c-1.238-1.41-2.683-2.857-4.381-4.234c-3.347-2.799-7.727-5.364-12.939-6.918
		c-0.655-0.178-1.317-0.357-1.986-0.538c-0.68-0.13-1.367-0.261-2.061-0.394c-0.278-0.063-0.569-0.104-0.861-0.144
		c0.399-9.397-3.941-28.411-6.363-37.39c-1.353-5.019-2.967-9.735-4.392-13.896c-3.86-11.279-6.649-19.428-1.775-24.322
		c1.693-1.699,3.775-2.318,6.19-1.835c5.597,1.116,11.718,7.617,15.231,16.177c3.196,7.787,7.113,19.497,8.098,31.845
		c-0.39,0.101-0.771,0.203-1.199,0.342c-1.151,0.349-2.117,0.735-2.927,1.103c-0.409,0.185-0.763,0.37-1.072,0.526
		c-0.279,0.162-0.517,0.299-0.709,0.41c-0.377,0.236-0.579,0.362-0.579,0.362c-0.496,0.312-0.762,0.92-0.61,1.519
		c0.188,0.743,0.944,1.193,1.687,1.005c0,0,0.23-0.058,0.662-0.167c0.212-0.06,0.474-0.133,0.782-0.22
		c0.291-0.063,0.625-0.129,0.986-0.227c0.739-0.174,1.677-0.387,2.74-0.609c0.544-0.109,1.124-0.226,1.735-0.348
		c0.319-0.056,0.668-0.116,1.004-0.174c0.001,0,0.002,0,0.004-0.001c0.292-0.05,0.569-0.099,0.873-0.151
		c2.673-0.44,5.857-0.743,9.292-0.828c1.717-0.039,3.494-0.057,5.301-0.009c0.904,0.02,1.814,0.059,2.727,0.105l1.334,0.082
		l1.402,0.12c1.789,0.177,3.559,0.398,5.326,0.731c1.754,0.328,3.471,0.722,5.117,1.165c3.297,0.882,6.316,1.946,8.84,3.003
		c1.258,0.524,2.397,1.054,3.448,1.52c1.04,0.448,1.948,0.816,2.682,1.109c1.39,0.553,2.184,0.869,2.184,0.869l0.154,0.062
		c0.464,0.183,1.011,0.098,1.4-0.264c0.54-0.501,0.57-1.346,0.068-1.885c0,0-0.196-0.211-0.587-0.556
		c-0.375-0.323-0.939-0.754-1.655-1.216c-0.134-0.088-0.28-0.179-0.427-0.27c0.51-0.611,0.813-1.175,1.088-1.722
		c0.54-1.14,0.909-2.227,1.24-3.307c0.654-2.156,1.148-4.277,1.633-6.392c0.952-4.224,1.811-8.416,2.843-12.528
		c1.04-4.089,2.202-8.184,3.979-11.746c0.886-1.739,1.994-3.394,3.242-4.216c0.617-0.425,1.212-0.601,1.852-0.612l0.244,0.007h0.012
		l0.199,0.031l0.796,0.124l0.398,0.061c0.141,0.019,0.184,0.063,0.28,0.091c0.168,0.063,0.336,0.121,0.508,0.172
		c0.169,0.034,0.347,0.117,0.527,0.223l0.541,0.274c0.354,0.196,0.65,0.48,0.991,0.701c0.278,0.311,0.591,0.58,0.858,0.91
		c0.237,0.366,0.533,0.67,0.739,1.074c0.909,1.532,1.487,3.401,1.851,5.345C165.525,58.708,165.465,62.905,165.098,67.062z
		 M101.274,133.918c0,0,0.01,0.051,0.028,0.149c0.004,0.025,0.008,0.05,0.008,0.066c0.006,0.024-0.01-0.014-0.018-0.035
		c0.035,0.098-0.071-0.163-0.018-0.507c-0.008,0.101-0.024,0.199-0.006,0.303L101.274,133.918z"/>
</g>
</svg>
