<?xml version="1.0" encoding="utf-8"?>
<!-- Generator: Adobe Illustrator 15.1.0, SVG Export Plug-In . SVG Version: 6.00 Build 0)  -->
<!DOCTYPE svg PUBLIC "-//W3C//DTD SVG 1.1//EN" "http://www.w3.org/Graphics/SVG/1.1/DTD/svg11.dtd">
<svg version="1.1" id="Layer_1" xmlns="http://www.w3.org/2000/svg" xmlns:xlink="http://www.w3.org/1999/xlink" x="0px" y="0px"
	 width="200px" height="200px" viewBox="0 0 200 200" enable-background="new 0 0 200 200" xml:space="preserve">
<g>
	<path fill="#FFFFFF" d="M145.734,161.618l-0.538,0.068c1.196-0.825,2.411-1.768,3.609-2.875c10.281-9.5,9.32-24.578,4.046-38.666
		c-10.515-28.084-12.104-53.127-12.261-61.509c-0.364-19.394,3.95-34.771-5.748-40.137c-8.684-4.804-17.924,6.304-19.538,21.276
		c-1.205,11.168-1.267,26.994,2.782,37.993c-7.598-14.622-14.051-33.144-17.632-49.219c-1.427-6.402-3.04-14.453-10.784-15.706
		c-7.392-1.194-12.837,5.188-13.459,15.1c-1.281,20.443,11.157,43.384,17.202,53.181c0,0-13.66-19.646-25.66-11.646
		c-8.4,5.6-10.702,10.954-7.363,19.666c-0.024,0.005-0.048,0.011-0.073,0.015l-0.042-0.304c0,0-4.939-4.377-11.522,0.631
		c-7.431,5.65-8.095,12.992-1.714,25.992c4.479,9.124,9.952,14.999,15.442,15.361c0.327,1.146,0.671,2.294,1.04,3.438l-1.917-2.63
		c0,9.33,3.281,23.137,14.188,32.924c2.142,1.922,4.284,3.671,6.965,5.063l-0.886,0.112c-0.876,2.594-0.982,4.088-0.484,5.969
		c2.796,10.568,21.044,11.355,34.34,10.152c14.44-1.307,32.484-4.557,34.484-15.432
		C150.925,166.558,148.946,163.187,145.734,161.618z"/>
	<path d="M49.994,124.621c1.998,2.661,4.37,5.222,7.58,6.949c0.64,0.336,1.33,0.612,2.04,0.843c0.008,0.399-0.009,0.906,0.043,1.654
		c0.035,0.8,0.095,1.761,0.214,2.829c0.043,0.54,0.125,1.11,0.211,1.711c0.083,0.602,0.169,1.234,0.301,1.887
		c0.461,2.622,1.231,5.649,2.443,8.764c0.602,1.558,1.3,3.141,2.113,4.7c0.807,1.562,1.716,3.107,2.73,4.583
		c0.514,0.734,1.005,1.484,1.584,2.167c0.566,0.691,1.095,1.408,1.71,2.044c1.168,1.335,2.42,2.517,3.68,3.669
		c1.169,1.016,2.46,2.126,3.748,3.008c0.321,0.225,0.638,0.446,0.949,0.665c0.094,0.057,0.185,0.111,0.278,0.168
		c-0.658,2.313-0.69,3.977-0.164,5.966c2.6,9.828,15.74,12.071,27.188,12.07c3.332,0,6.521-0.189,9.266-0.438
		c14.464-1.31,33.961-4.502,36.271-17.063c0.67-3.649-0.57-7.109-3.217-9.417l0.621-0.512l0.378-0.313l0.188-0.156l0.047-0.039
		l0.123-0.117l0.081-0.082l0.646-0.659c0.432-0.464,0.855-0.823,1.293-1.374l1.3-1.637c1.557-2.212,2.808-4.591,3.644-7.128
		c0.8-2.534,1.304-5.142,1.478-7.75c0.134-2.603,0.098-5.208-0.237-7.757c-0.311-2.551-0.785-5.07-1.443-7.526
		c-0.301-1.237-0.681-2.447-1.057-3.658c-0.176-0.61-0.401-1.201-0.607-1.8l-0.601-1.724l-2.368-6.986
		c-0.384-1.164-0.814-2.328-1.16-3.492l-0.971-3.492c-0.623-2.337-1.352-4.632-1.893-7.002l-1.609-7.115
		c-0.928-4.771-1.822-9.556-2.42-14.38c-0.668-4.814-1.102-9.657-1.391-14.489l-0.133-3.6c-0.021-1.24-0.027-2.449-0.02-3.642
		c0.02-2.422,0.1-4.852,0.203-7.294c0.189-4.888,0.561-9.806,0.405-14.919c-0.103-2.554-0.317-5.181-1.106-7.85
		c-0.396-1.328-0.947-2.666-1.73-3.918c-0.778-1.251-1.803-2.398-2.984-3.31c-0.302-0.216-0.589-0.463-0.908-0.644l-0.471-0.289
		l-0.236-0.144l-0.06-0.036c0.062,0.03-0.151-0.081-0.147-0.079l-0.104-0.051c-0.301-0.141-0.494-0.261-0.883-0.42
		c-0.383-0.146-0.795-0.331-1.163-0.423c-1.481-0.451-3.108-0.566-4.647-0.32c-3.123,0.493-5.629,2.269-7.559,4.215
		c-1.939,1.988-3.387,4.27-4.563,6.629c-1.162,2.37-2.034,4.84-2.666,7.358c-0.639,2.5-1.024,5.12-1.206,7.621
		c-0.243,2.422-0.354,4.951-0.473,7.471c-0.104,4.286-0.036,8.576,0.294,12.867c-0.238-0.586-0.477-1.173-0.717-1.758
		c-0.573-1.465-1.105-2.948-1.66-4.421l-0.825-2.213l-0.758-2.237c-0.501-1.493-1.023-2.979-1.505-4.478l-1.385-4.516
		c-0.483-1.5-0.865-3.026-1.291-4.542c-0.409-1.519-0.855-3.03-1.2-4.564l-1.103-4.587c-0.343-1.539-0.689-3.131-1.131-4.729
		c-0.442-1.599-0.972-3.217-1.721-4.807c-0.749-1.583-1.734-3.157-3.099-4.483c-1.352-1.332-3.094-2.335-4.913-2.861l-1.37-0.311
		l-0.172-0.037l-0.272-0.032l-0.296-0.03l-0.593-0.059c-0.339-0.059-0.955-0.024-1.439-0.019c-0.528-0.006-0.993,0.079-1.466,0.156
		c-1.895,0.316-3.709,1.146-5.193,2.308c-1.488,1.162-2.689,2.605-3.586,4.158c-0.896,1.556-1.542,3.201-2.025,4.869
		c-0.425,1.676-0.748,3.369-0.862,5.064l-0.03,0.318l-0.015,0.159l-0.009,0.158l-0.001,0.075l-0.013,0.596l-0.026,1.191
		c-0.004,0.804-0.065,1.566-0.022,2.405l0.13,2.515l0.074,1.255l0.146,1.221l0.294,2.441c0.112,0.811,0.28,1.609,0.418,2.414
		c0.257,1.616,0.645,3.197,1.021,4.78c0.349,1.592,0.86,3.132,1.283,4.701c0.495,1.542,0.986,3.088,1.529,4.612
		c1.106,3.04,2.285,6.051,3.624,8.984c0.669,1.501,1.368,2.987,2.09,4.461c-0.942-0.667-1.925-1.293-2.973-1.842
		c-1.853-0.961-3.877-1.769-6.098-2.039c-2.199-0.278-4.578-0.054-6.659,0.856c-1.035,0.435-2.034,1.009-2.894,1.63
		c-0.788,0.579-1.544,1.046-2.372,1.765l-1.215,1.005l-1.123,1.104l-0.557,0.557c-0.178,0.198-0.341,0.416-0.512,0.624
		c-0.333,0.426-0.684,0.832-0.997,1.278c-1.244,1.813-2.084,4.005-2.34,6.237l-0.104,1.673l0.125,1.63
		c0.017,0.433,0.098,0.84,0.183,1.245c-0.198-0.043-0.382-0.094-0.595-0.126c-1.684-0.272-3.865-0.101-5.966,0.814
		c-1.052,0.446-2.084,1.049-3.065,1.775c-0.9,0.667-1.921,1.525-2.821,2.474c-0.917,0.966-1.787,2.105-2.501,3.417
		c-0.708,1.312-1.237,2.802-1.509,4.353c-0.543,3.128-0.088,6.341,0.744,9.365c0.851,3.036,2.083,5.969,3.474,8.833
		C46.38,119.055,48.01,121.949,49.994,124.621z M81.343,50.348c-0.402-1.499-0.896-2.98-1.226-4.494
		c-0.357-1.508-0.729-3.014-0.969-4.539c-0.13-0.76-0.291-1.518-0.396-2.281l-0.275-2.291l-0.139-1.146l-0.064-1.124l-0.124-2.245
		c-0.044-0.747,0.018-1.575,0.021-2.359l0.026-1.191l0.013-0.596l0-0.038l0.003-0.027l0.013-0.138l0.026-0.275
		c0.098-1.479,0.381-2.916,0.731-4.32c0.404-1.382,0.931-2.709,1.62-3.91c1.386-2.395,3.521-4.146,6.003-4.547
		c0.311-0.05,0.628-0.115,0.898-0.101l0.422-0.019c0.075-0.002,0.13-0.015,0.222-0.009l0.296,0.029l0.593,0.06l0.296,0.029
		l0.046,0.005l0.097,0.023l0.954,0.214c1.232,0.367,2.32,0.993,3.236,1.888c1.849,1.792,2.951,4.574,3.75,7.481
		c0.404,1.466,0.736,2.979,1.083,4.541l1.125,4.681c0.354,1.567,0.807,3.105,1.224,4.653c0.432,1.544,0.824,3.101,1.314,4.627
		l1.409,4.597c0.49,1.526,1.022,3.038,1.532,4.557l0.771,2.277l0.839,2.253c0.565,1.5,1.107,3.008,1.69,4.502
		c1.221,2.967,2.387,5.955,3.744,8.869c0.813,1.899,1.719,3.761,2.637,5.617c-0.591,0.03-1.193,0.062-1.812,0.094
		c-1.069,0.064-2.171,0.22-3.292,0.33c-1.121,0.116-2.254,0.315-3.387,0.494c-1.131,0.195-2.253,0.461-3.361,0.686
		c-1.1,0.28-2.185,0.533-3.219,0.855c-1.751,0.521-3.375,1.084-4.807,1.66c-3.188-5.234-6.098-10.66-8.59-16.251
		c-1.3-2.848-2.439-5.76-3.506-8.69C82.291,53.314,81.82,51.83,81.343,50.348z M45.002,98.729c0.356-2.242,1.432-4.111,2.837-5.625
		c0.724-0.771,1.43-1.392,2.25-2.021c0.744-0.566,1.486-1.005,2.198-1.318c1.428-0.638,2.723-0.73,3.754-0.586
		c1.037,0.142,1.814,0.505,2.299,0.775c0.121,0.069,0.222,0.131,0.306,0.185c0.362,0.935,0.758,1.845,1.191,2.725
		c0.849,1.813,1.816,3.527,2.804,5.22l1.519,2.507l1.577,2.452c1.124,1.675,2.109,3.18,3.334,4.805
		c0.581,0.806,1.18,1.594,1.807,2.356c0.604,0.779,1.248,1.536,1.914,2.28c1.321,1.495,2.732,2.942,4.393,4.239
		c0.821,0.652,1.725,1.258,2.747,1.783l0.805,0.366c0.299,0.104,0.589,0.209,0.9,0.299c0.2,0.043,0.393,0.087,0.594,0.125
		c0.087,0.328,0.186,0.652,0.313,0.968c0.387,0.975,0.954,1.842,1.577,2.564c1.262,1.442,2.678,2.422,4.045,3.249
		c2.755,1.632,5.44,2.752,7.975,3.815c1.267,0.511,2.5,1.008,3.692,1.488c1.06,0.452,2.345,0.951,3.263,1.429
		c1.055,0.503,2.054,1.037,2.979,1.585c-0.142,0.679-0.292,1.543-0.428,2.565c-0.179,1.239-0.24,2.704-0.228,4.284
		c0.019,1.579,0.166,3.288,0.541,4.981c0.35,1.695,0.944,3.377,1.733,4.863c0.192,0.374,0.394,0.735,0.618,1.077
		c0.209,0.35,0.432,0.682,0.674,0.989c0.467,0.622,0.963,1.18,1.479,1.626c0.49,0.476,1.021,0.816,1.47,1.13
		c0.476,0.278,0.897,0.501,1.253,0.663c0.729,0.292,1.154,0.407,1.154,0.407c0.413,0.109,0.879,0.026,1.234-0.267
		c0.586-0.483,0.669-1.35,0.186-1.936l-0.115-0.14c0,0-0.243-0.295-0.686-0.722c-0.412-0.469-1.014-1.075-1.617-1.875
		c-0.164-0.187-0.303-0.409-0.463-0.624c-0.164-0.212-0.322-0.438-0.467-0.686c-0.318-0.471-0.621-0.997-0.887-1.571
		c-0.537-1.143-0.963-2.46-1.235-3.843c-0.144-0.689-0.231-1.396-0.319-2.096c-0.082-0.701-0.13-1.4-0.151-2.082
		c-0.049-1.363,0.031-2.648,0.095-3.753c0.006-0.09,0.014-0.171,0.02-0.259c0.706,0.599,1.318,1.179,1.814,1.711
		c1.68,1.787,2.602,2.815,2.551,2.672c0.283,0.784,1.149,1.19,1.934,0.907c0.785-0.283,1.191-1.149,0.908-1.935
		c-0.031-0.072-0.075-0.597-0.4-1.403c-0.318-0.805-0.918-1.9-1.942-3.03c-1.021-1.129-2.366-2.36-4.021-3.578
		c-1.661-1.232-3.599-2.396-5.872-3.508c-1.184-0.608-2.199-1.003-3.478-1.562c-1.167-0.484-2.373-0.985-3.613-1.5
		c-2.448-1.051-5.036-2.185-7.354-3.597c-1.151-0.703-2.207-1.503-2.94-2.366c-0.732-0.874-1.063-1.731-1.086-2.824
		c-0.011-0.546,0.06-1.146,0.207-1.774c0.118-0.525,0.377-1.399,0.566-1.803c0.447-0.988,1.228-1.848,2.259-2.547
		c2.077-1.408,4.937-2.07,7.75-2.214c2.835-0.152,5.698,0.181,8.392,0.807c2.686,0.635,5.264,1.56,7.502,2.665
		c0.521,0.234,1.195,0.62,1.701,0.879c0.617,0.32,1.223,0.635,1.82,0.944c1.214,0.577,2.396,1.119,3.566,1.55
		c2.33,0.892,4.539,1.505,6.523,1.92c1.986,0.402,3.748,0.635,5.214,0.638c1.464,0.016,2.618-0.14,3.404-0.318
		c0.774-0.169,1.248-0.35,1.222-0.343c0.76-0.078,1.313-0.757,1.234-1.517c-0.078-0.761-0.757-1.313-1.518-1.235
		c-0.025,0.007-0.337-0.088-1.039-0.211c-0.69-0.129-1.708-0.294-2.994-0.49c-1.283-0.211-2.852-0.387-4.627-0.77
		c-1.772-0.391-3.746-0.962-5.823-1.783c-1.045-0.396-2.098-0.895-3.18-1.421c-0.531-0.283-1.071-0.571-1.62-0.864
		c-0.661-0.351-1.141-0.64-1.848-0.98c-2.607-1.314-5.426-2.375-8.49-3.11c-3.058-0.714-6.319-1.108-9.686-0.937
		c-0.375,0.021-0.752,0.052-1.131,0.087c-0.038-0.416-0.137-0.882-0.278-1.396c-0.135-0.521-0.264-1.134-0.498-1.725
		c-0.229-0.599-0.452-1.274-0.764-1.918c-0.306-0.653-0.623-1.352-1.002-2.022c-0.358-0.69-0.766-1.379-1.194-2.058
		c-0.413-0.695-0.863-1.372-1.333-2.034c-0.913-1.344-1.906-2.614-2.865-3.778c-0.499-0.564-0.981-1.109-1.439-1.627
		c-0.483-0.495-0.924-0.974-1.357-1.394c-1.709-1.688-3.039-2.658-3.038-2.658c-0.377-0.274-0.896-0.319-1.326-0.072
		c-0.583,0.335-0.784,1.079-0.449,1.663l0.003,0.005c0,0,0.78,1.357,2.052,3.316c0.636,0.968,1.377,2.098,2.171,3.308
		c0.395,0.601,0.821,1.211,1.221,1.847c0.411,0.628,0.847,1.257,1.239,1.904c0.402,0.644,0.807,1.282,1.182,1.918
		c0.396,0.629,0.734,1.266,1.077,1.87c0.362,0.602,0.64,1.197,0.925,1.756c0.313,0.555,0.513,1.086,0.736,1.574
		c0.247,0.487,0.383,0.924,0.531,1.316c0.073,0.196,0.142,0.38,0.205,0.55c0.044,0.143,0.066,0.266,0.094,0.385
		c-1.658,0.459-3.298,1.145-4.855,2.176c-1.577,1.063-3.008,2.608-3.836,4.504c-0.43,1.04-0.591,1.683-0.826,2.678
		c-0.051,0.233-0.079,0.482-0.119,0.724l-0.388-0.179c-0.681-0.353-1.384-0.81-2.061-1.352c-1.366-1.063-2.652-2.366-3.865-3.744
		c-0.613-0.684-1.212-1.386-1.782-2.124c-0.592-0.719-1.152-1.456-1.692-2.206c-1.09-1.434-2.212-3.136-3.223-4.645l-1.535-2.385
		l-1.461-2.412c-0.943-1.617-1.863-3.247-2.638-4.908c-0.816-1.652-1.453-3.34-1.954-5.022c-0.129-0.421-0.182-0.84-0.28-1.259
		c-0.087-0.42-0.195-0.841-0.201-1.25l-0.102-1.236l0.08-1.197c0.194-1.571,0.742-3.051,1.663-4.412
		c0.238-0.336,0.521-0.653,0.775-0.984c0.133-0.162,0.254-0.331,0.396-0.49l0.463-0.457l0.925-0.914l1.002-0.827
		c0.61-0.555,1.482-1.11,2.24-1.666c0.695-0.5,1.372-0.877,2.102-1.19c1.443-0.635,3.021-0.773,4.613-0.584
		c1.598,0.186,3.205,0.81,4.743,1.608c1.543,0.806,3.011,1.853,4.407,3.002c1.399,1.15,2.718,2.431,3.97,3.779
		c1.031,1.116,2.045,2.318,2.946,3.51c-0.308,0.192-0.593,0.38-0.837,0.549c-0.433,0.312-0.74,0.554-0.988,0.763
		c-0.243,0.207-0.33,0.301-0.33,0.301l-0.08,0.085c-0.403,0.436-0.543,1.081-0.306,1.667c0.328,0.808,1.249,1.197,2.056,0.869
		c0,0,0.146-0.059,0.354-0.113c0.228-0.076,0.563-0.188,0.988-0.329c0.869-0.3,2.126-0.718,3.622-1.248
		c0.761-0.24,1.563-0.551,2.446-0.804c0.869-0.285,1.808-0.526,2.777-0.781c0.969-0.253,1.989-0.456,3.013-0.704
		c1.041-0.188,2.088-0.416,3.151-0.577c1.067-0.141,2.118-0.365,3.175-0.476c1.055-0.116,2.088-0.263,3.097-0.349
		c1.01-0.088,1.985-0.173,2.911-0.254c0.93-0.043,1.809-0.083,2.619-0.12c1.623-0.098,2.982-0.158,3.939-0.332
		c0.956-0.148,1.512-0.327,1.512-0.327l0.083-0.026c0.464-0.152,0.856-0.511,1.033-1.007c0.304-0.852-0.141-1.788-0.993-2.092
		c0,0-0.556-0.198-1.544-0.383c-0.859-0.154-2.059-0.336-3.479-0.352c-1.204-3.966-1.895-8.144-2.337-12.353
		c-0.437-4.785-0.484-9.626-0.327-14.453c0.134-2.392,0.253-4.775,0.521-7.246c0.195-2.4,0.555-4.661,1.147-6.922
		c1.163-4.463,3.175-8.818,6.192-11.924c1.499-1.519,3.279-2.665,5.064-2.922c0.889-0.136,1.773-0.074,2.645,0.188
		c0.23,0.053,0.375,0.142,0.57,0.199c0.186,0.062,0.526,0.252,0.781,0.373l0.052,0.025c0.003,0.002,0.001,0,0.005,0.003l0.039,0.024
		l0.157,0.098l0.315,0.193c0.22,0.118,0.393,0.285,0.594,0.423c1.529,1.172,2.541,2.89,3.146,4.952
		c0.611,2.055,0.828,4.375,0.912,6.723c0.142,4.724-0.223,9.631-0.424,14.565c-0.217,4.959-0.338,9.912-0.07,14.957
		c0.3,4.982,0.709,9.948,1.428,14.87c0.635,4.935,1.57,9.821,2.543,14.695l1.679,7.266c0.564,2.421,1.331,4.818,1.989,7.227
		l1.026,3.609c0.36,1.189,0.789,2.332,1.181,3.501l2.4,6.975l0.621,1.755c0.195,0.563,0.412,1.121,0.579,1.692
		c0.357,1.136,0.72,2.27,1.005,3.421c0.627,2.291,1.072,4.615,1.367,6.941c0.319,2.33,0.352,4.661,0.249,6.965
		c-0.143,2.303-0.577,4.55-1.241,6.708c-0.691,2.146-1.756,4.156-3.01,5.972l-0.979,1.263c-0.313,0.424-0.824,0.878-1.227,1.314
		l-0.642,0.662l-0.044,0.046l-0.039,0.032l-0.167,0.138l-0.333,0.274l-1.327,1.103c-3.608,2.91-7.876,4.691-12.126,6.753
		l-0.086,0.04c-0.362,0.178-0.618,0.544-0.635,0.976c-0.023,0.624,0.464,1.149,1.088,1.172c2.697,0.102,5.247-0.587,7.658-1.588
		c1.464-0.664,2.867-1.457,4.215-2.336c2.062,1.368,3.087,3.716,2.628,6.213c-1.346,7.316-12.347,11.96-32.698,13.801
		c-6.857,0.623-29.447,1.829-32.226-8.672c-0.249-0.938-0.326-1.75-0.065-2.995c0.865,0.375,1.703,0.655,2.452,0.94
		c1.072,0.3,2.015,0.574,2.804,0.664c1.581,0.179,2.493,0.109,2.493,0.109c0.553-0.044,1.076-0.362,1.353-0.89
		c0.429-0.817,0.113-1.827-0.704-2.256l-0.147-0.077c0,0-0.758-0.397-2.101-0.792c-0.672-0.2-1.447-0.512-2.375-0.756
		c-0.882-0.353-1.913-0.672-2.934-1.234c-0.261-0.129-0.526-0.262-0.797-0.396c-0.265-0.147-0.524-0.319-0.794-0.481
		c-0.269-0.164-0.543-0.331-0.821-0.501c-0.268-0.191-0.54-0.386-0.816-0.583c-1.121-0.78-2.17-1.692-3.401-2.776
		c-1.084-1.013-2.229-2.102-3.259-3.301c-1.051-1.185-2.033-2.466-2.945-3.795c-0.921-1.322-1.75-2.713-2.489-4.123
		c-0.745-1.407-1.388-2.843-1.945-4.258c-1.106-2.836-1.856-5.595-2.341-7.987c-0.135-0.597-0.225-1.175-0.313-1.725
		c-0.091-0.549-0.178-1.07-0.227-1.563c-0.132-0.992-0.2-1.834-0.247-2.522c-0.034-0.341-0.048-0.673-0.056-0.967
		c1.69-0.113,3.31-0.641,4.667-1.412c0.756-0.452,1.477-0.938,2.103-1.484c0.175-0.152,0.285-0.228,0.512-0.443l0.198-0.189
		l0.29-0.309c0.348-0.396,0.632-0.779,0.881-1.21c1.003-1.719,1.205-3.568,1.147-5.152c-0.172-3.203-1.177-5.786-2.152-8.078
		c-1.007-2.283-2.108-4.243-3.136-5.94c-1.042-1.688-2.047-3.088-2.948-4.184c-1.785-2.206-3.056-3.253-3.056-3.253l-0.031-0.025
		c-0.428-0.351-1.042-0.425-1.555-0.141c-0.672,0.371-0.916,1.218-0.544,1.891c0,0,0.758,1.37,2.169,3.663
		c0.695,1.146,1.538,2.538,2.505,4.135c0.95,1.596,1.959,3.433,2.845,5.485c0.867,2.035,1.671,4.359,1.756,6.595
		c0.035,1.104-0.146,2.133-0.603,2.882c-0.106,0.187-0.257,0.375-0.382,0.519l-0.077,0.088l-0.194,0.183
		c-0.033,0.035-0.214,0.178-0.314,0.262c-0.469,0.408-0.977,0.731-1.487,1.038c-2.064,1.179-4.378,1.181-6.667-0.077
		c-2.285-1.229-4.333-3.39-6.097-5.752c-1.779-2.392-3.269-5.008-4.6-7.723c-1.325-2.711-2.462-5.437-3.211-8.095
		C44.926,103.559,44.611,100.964,45.002,98.729z"/>
</g>
</svg>
